<?xml version="1.0" encoding="UTF-8"?>
<svg id="Camada_2" data-name="Camada 2" xmlns="http://www.w3.org/2000/svg" viewBox="0 0 736.96 157.94">
  <defs>
    <style>
      .cls-1 {
        fill: none;
        stroke: #ffdb01;
        stroke-linecap: round;
        stroke-linejoin: round;
        stroke-width: 6px;
      }
    </style>
  </defs>
  <g id="Camada_1-2" data-name="Camada 1">
    <g>
      <path d="M82.05,41.63c3.93,0,8.18.14,12.76.41,4.58.27,9.05.63,13.42,1.06,4.36.44,8.24.98,11.62,1.64l-1.64,15.06c-5.24-.11-10.5-.19-15.79-.25-5.29-.05-10.45-.08-15.46-.08-4.25-.11-7.53-.05-9.82.16-2.29.22-3.9.74-4.83,1.55-.93.82-1.39,2.26-1.39,4.34,0,2.4.82,4.01,2.45,4.83,1.64.82,4.36,1.72,8.18,2.7l21.11,5.07c6.76,1.75,11.78,4.34,15.06,7.77,3.27,3.44,4.91,8.59,4.91,15.46s-1.26,11.95-3.76,15.55c-2.51,3.6-6.49,6.08-11.95,7.45-5.46,1.36-12.49,2.04-21.11,2.04-3.38,0-8.4-.16-15.06-.49-6.66-.33-13.97-1.15-21.93-2.46l1.64-15.06c1.96.11,4.47.19,7.53.25,3.05.06,6.38.08,9.98.08h10.8c5.56,0,9.82-.14,12.76-.41,2.95-.27,4.96-.9,6.06-1.88,1.09-.98,1.64-2.45,1.64-4.42,0-2.4-.93-4.04-2.78-4.91-1.86-.87-4.8-1.8-8.84-2.78l-20.46-5.07c-5.13-1.42-9.11-3.22-11.95-5.4-2.84-2.18-4.83-4.85-5.97-8.02-1.15-3.16-1.72-6.93-1.72-11.29,0-5.56,1.12-10.01,3.35-13.34,2.23-3.33,5.89-5.75,10.96-7.28,5.07-1.53,11.81-2.29,20.21-2.29Z"/>
      <path d="M154.54,43.76l15.38,52.37c.43,2.07.87,4.15,1.31,6.22.43,2.07.82,4.15,1.15,6.22h4.42l-7.69,16.04h-5.89c-1.86,0-3.49-.54-4.91-1.64-1.42-1.09-2.4-2.51-2.95-4.25l-26.67-74.95h25.86ZM218.69,43.76l-28.97,81.82c-1.31,4.04-3.14,8.1-5.48,12.19-2.35,4.09-5.29,7.77-8.84,11.05-3.55,3.27-7.8,5.75-12.76,7.45-4.97,1.69-10.83,2.1-17.59,1.23l-1.8-13.75c6.65-1.75,11.84-4.09,15.55-7.04,3.71-2.95,6.6-6.82,8.67-11.62l5.07-11.29c.98-2.4,1.94-5.32,2.86-8.75.93-3.44,1.72-6.41,2.37-8.92l15.06-52.37h25.86Z"/>
      <path d="M249.46,43.76l2.78,16.04,1.96,2.13v62.68h-24.22V43.76h19.47ZM286.28,41.63c15.27,0,22.91,7.47,22.91,22.42v60.55h-24.22v-53.02c0-3.6-.65-6.08-1.96-7.45-1.31-1.36-3.55-2.05-6.71-2.05-3.49,0-7.09.68-10.8,2.05-3.71,1.37-8.29,3.46-13.75,6.3l-1.15-13.58c5.78-4.91,11.7-8.67,17.76-11.29,6.05-2.62,12.03-3.93,17.92-3.93Z"/>
      <path d="M365.98,41.63c2.95,0,6.16.14,9.66.41,3.49.27,7.01.76,10.56,1.47,3.54.71,6.79,1.72,9.74,3.03l-2.62,15.22c-4.36-.11-8.54-.22-12.52-.33-3.98-.11-7.56-.16-10.72-.16-4.91,0-8.78.66-11.62,1.96-2.84,1.31-4.88,3.63-6.14,6.96-1.26,3.33-1.88,7.94-1.88,13.83s.63,10.69,1.88,14.07c1.25,3.38,3.3,5.73,6.14,7.04,2.84,1.31,6.71,1.96,11.62,1.96,1.74,0,3.98-.05,6.71-.16,2.73-.11,5.67-.25,8.84-.41,3.16-.16,6.27-.46,9.33-.9l2.29,15.38c-4.36,1.96-9.33,3.38-14.89,4.25s-11.07,1.31-16.53,1.31c-10.04,0-18.03-1.39-23.97-4.17-5.95-2.78-10.23-7.28-12.85-13.5-2.62-6.22-3.93-14.51-3.93-24.88s1.33-18.66,4.01-24.87c2.67-6.22,7.01-10.69,13.01-13.42,6-2.73,13.96-4.09,23.89-4.09Z"/>
      <path d="M441.74,43.76c5.34,0,10.66.74,15.96,2.21,5.29,1.47,10.72,3.46,16.28,5.97l-.33,5.07c-6.22-2.4-11.7-4.23-16.45-5.48-4.75-1.25-9.63-1.88-14.65-1.88-5.46,0-9.88,1.09-13.26,3.27-3.38,2.18-5.87,5.89-7.45,11.13-1.58,5.24-2.37,12.22-2.37,20.95s.76,15.85,2.29,21.03c1.53,5.18,3.98,8.92,7.36,11.21,3.38,2.29,7.8,3.44,13.26,3.44,3.38,0,6.63-.54,9.74-1.64,3.11-1.09,6.41-2.75,9.9-4.99,3.49-2.23,7.36-5.1,11.62-8.59l.16,5.73c-5.46,4.8-10.83,8.57-16.12,11.29-5.29,2.73-10.83,4.09-16.61,4.09-10.15,0-17.4-3.27-21.77-9.82-4.36-6.55-6.55-17.07-6.55-31.58,0-10.04.98-18.08,2.95-24.14s5.07-10.45,9.33-13.17c4.25-2.73,9.82-4.09,16.69-4.09ZM479.22,10.05v114.55h-4.91l-.98-13.75-.65-.82v-55.15l.65-2.62c-.33-2.84-.52-5.45-.57-7.86-.06-2.4-.08-5.07-.08-8.02V10.05h6.55Z"/>
      <path d="M539.28,43.76c10.69,0,18.63,1.94,23.81,5.81,5.18,3.87,7.83,9.68,7.94,17.43.22,6.98-1.01,12.3-3.68,15.96-2.67,3.66-7.23,5.48-13.66,5.48h-45.82v-5.4h44.84c4.47,0,7.58-1.42,9.33-4.25,1.74-2.84,2.51-6.65,2.29-11.46-.11-6.22-2.18-10.72-6.22-13.5-4.04-2.78-10.2-4.17-18.49-4.17-6.98,0-12.52,1.09-16.61,3.27-4.09,2.18-7.01,5.84-8.75,10.96-1.75,5.13-2.62,12-2.62,20.62,0,9.16,1.01,16.39,3.03,21.68,2.02,5.29,5.24,9.03,9.66,11.21,4.42,2.18,10.12,3.27,17.1,3.27,5.13,0,10.06-.22,14.81-.65,4.75-.43,8.81-.87,12.19-1.31l.82,4.58c-1.96.66-4.64,1.23-8.02,1.72-3.38.49-6.93.87-10.64,1.15-3.71.27-7.04.41-9.98.41-8.51,0-15.38-1.39-20.62-4.17s-9.08-7.23-11.54-13.34c-2.46-6.11-3.68-14.18-3.68-24.22s1.17-18.22,3.52-24.22c2.34-6,6.05-10.31,11.13-12.93,5.07-2.62,11.7-3.93,19.88-3.93Z"/>
      <path d="M619.95,43.76c3.27,0,6.71.08,10.31.25,3.6.16,7.2.41,10.8.74,3.6.33,6.98.71,10.15,1.15l-.65,4.75c-4.8-.22-9.79-.43-14.97-.65-5.18-.22-10.17-.38-14.97-.49-5.56-.11-10.09.06-13.58.49-3.49.44-6.05,1.75-7.69,3.93-1.64,2.18-2.45,5.84-2.45,10.96s1.12,9.06,3.35,11.13c2.23,2.07,5.37,3.44,9.41,4.09l25.69,3.76c5.89.98,10.36,3.06,13.42,6.22,3.05,3.17,4.58,7.91,4.58,14.24,0,6.66-1.23,11.54-3.68,14.65s-6.03,5.13-10.72,6.05c-4.69.93-10.47,1.39-17.35,1.39-3.6,0-7.83-.11-12.68-.33-4.86-.22-10.39-.76-16.61-1.64l.65-4.75c3.27.22,6.38.41,9.33.57,2.95.16,5.92.27,8.92.33,3,.06,6.24.08,9.74.08,6.44-.11,11.54-.52,15.3-1.23,3.76-.71,6.49-2.23,8.18-4.58,1.69-2.34,2.54-5.86,2.54-10.55,0-5.24-1.28-8.89-3.85-10.96-2.56-2.07-5.81-3.38-9.74-3.93l-25.69-3.76c-3.71-.54-6.87-1.61-9.49-3.19-2.62-1.58-4.56-3.79-5.81-6.63-1.26-2.84-1.88-6.49-1.88-10.96,0-6.55,1.09-11.32,3.27-14.32,2.18-3,5.45-4.91,9.82-5.73,4.36-.82,9.82-1.17,16.36-1.06Z"/>
      <path d="M684.1,10.05l.16,53.51c0,2.95-.06,5.62-.16,8.02-.11,2.4-.38,5.07-.82,8.02.33,2.95.54,5.76.65,8.43.11,2.67.16,5.38.16,8.1v28.47h-6.55V10.05h6.55ZM699.65,76.98v5.24h-18.66v-5.24h18.66ZM734.34,45.73l-28.31,30.11c-.55.55-1.26,1.2-2.13,1.96-.87.76-1.58,1.37-2.13,1.8v.33c.54.44,1.25,1.12,2.13,2.05.87.93,1.58,1.83,2.13,2.7l30.93,39.93h-7.85l-34.86-45.33,32.08-33.55h8.02Z"/>
    </g>
    <g>
      <line class="cls-1" x1="25.44" y1="3" x2="25.44" y2="47.88"/>
      <line class="cls-1" x1="47.88" y1="25.44" x2="3" y2="25.44"/>
      <line class="cls-1" x1="41.31" y1="41.31" x2="9.57" y2="9.57"/>
      <line class="cls-1" x1="41.31" y1="9.57" x2="9.57" y2="41.31"/>
    </g>
  </g>
</svg>