<svg xmlns:xlink="http://www.w3.org/1999/xlink" width="30" height="40" viewBox="0 0 30 40" fill="none" xmlns="http://www.w3.org/2000/svg">
<path fill-rule="evenodd" clip-rule="evenodd" d="M14.7092 32.2396C10.9268 32.2092 7.88617 29.1791 7.91723 25.4715C7.94829 21.7639 11.0398 18.7831 14.8218 18.8138C18.6043 18.8443 21.6449 21.8746 21.6138 25.5819C21.5827 29.2896 18.4913 32.2704 14.7092 32.2396ZM29.5279 25.5162C29.7136 21.9511 28.4669 16.1154 25.4144 11.3454C25.3334 11.2217 25.1956 11.2706 25.225 11.4015C25.4286 12.1286 25.4775 13.4423 24.2982 13.3646C22.2089 13.2273 24.3712 8.84399 19.7826 5.80326C19.6907 5.74237 19.581 5.82367 19.6312 5.92084C19.9458 6.50709 20.1328 8.33515 19.4059 8.95833C18.8227 9.4581 17.7521 9.32368 16.7228 7.67732C15.0072 4.93393 15.6585 2.0004 16.8242 0.168125C16.9118 0.0311167 16.7919 -0.0232978 16.6921 0.00909177C10.3796 2.05125 9.11933 9.34344 7.77614 12.0033C7.55079 12.449 7.3555 12.6822 6.97022 12.6569C5.82067 12.5814 6.64872 10.1771 7.04688 9.3402C7.10273 9.2223 6.96461 9.1572 6.89026 9.23332C3.6405 12.5626 0.698704 18.2308 0.13962 23.498C0.157463 23.3733 0.0874126 23.9333 0.0533786 24.3434C0.0401615 24.504 0.0292573 24.666 0.0203358 24.8273C0.0110838 25.02 0.00216227 25.213 0.00051013 25.4077C-0.0665667 33.4008 6.48978 39.9338 14.6441 39.9995C22.7984 40.0653 29.4631 33.6392 29.5305 25.6461C29.5308 25.6024 29.5279 25.5596 29.5279 25.5162Z" fill="#EF4E23"></path>
</svg>