<?xml version="1.0" encoding="UTF-8"?>
<svg id="Camada_2" data-name="Camada 2" xmlns="http://www.w3.org/2000/svg" viewBox="0 0 118.78 117.63">
  <defs>
    <style>
      .cls-1 {
        fill: #cdff36;
        fill-rule: evenodd;
      }
    </style>
  </defs>
  <g id="Camada_1-2" data-name="Camada 1">
    <path d="M77.37,0h-35.96c-11.92,0-17.89,0-24.3,2.01-7.01,2.53-12.53,7.99-15.08,14.93C0,23.3,0,29.2,0,41.01v35.61c0,11.81,0,17.71,2.03,24.07,2.55,6.94,8.07,12.41,15.08,14.93,6.42,2.01,12.38,2.01,24.3,2.01h35.96c11.92,0,17.88,0,24.3-2.01,7.01-2.53,12.53-7.99,15.08-14.93,2.03-6.36,2.03-12.26,2.03-24.07v-35.61c0-11.81,0-17.71-2.03-24.07-2.55-6.94-8.07-12.41-15.08-14.93-6.42-2.01-12.38-2.01-24.3-2.01Z"/>
    <path class="cls-1" d="M101.18,28.47c0-5.61-4.59-10.15-10.25-10.15h-26.01c-5.66,0-10.25,4.54-10.25,10.15v10.41c0,5.61-4.59,10.15-10.25,10.15h-15.67c-5.66,0-10.25,4.54-10.25,10.15v30.88c0,5.61,4.59,10.15,10.25,10.15h26.01c5.66,0,10.25-4.54,10.25-10.15v-10.41c0-5.61,4.59-10.15,10.25-10.15h15.68c5.66,0,10.25-4.54,10.25-10.15v-30.88Z"/>
  </g>
</svg>