<?xml version="1.0" encoding="UTF-8"?>
<svg id="Camada_2" data-name="Camada 2" xmlns="http://www.w3.org/2000/svg" viewBox="0 0 71.97 71.53">
  <defs>
    <style>
      .cls-1 {
        fill: #00ae6b;
      }
    </style>
  </defs>
  <g id="Camada_1-2" data-name="Camada 1">
    <g>
      <path class="cls-1" d="M25.26,46.42c-2.38-3.97,6.23-11.91,8.94-8.53,2.47,3.08-5,10.54-8.94,8.53Z"/>
      <path class="cls-1" d="M41.65,41.08c2.34,1.64,1.37,13.07-3.61,11.49-4.32-1.37-.42-14.3,3.61-11.49Z"/>
      <path class="cls-1" d="M22.2,17.87c3.85-1.27,11.93,3.58,9.58,6.78-3.35,2.67-11.89-2.08-10.67-5.78.18-.55.56-.83,1.09-1Z"/>
      <path class="cls-1" d="M47.65,39.7c3.67-1.2,8.45,7.43,5.82,10.6-4.53,2.38-9.49-9.4-5.82-10.6Z"/>
      <path class="cls-1" d="M22.94,29.55c9.02-1.83,10.19,4.4,3.13,5.84-7.7,1.57-9.88-4.47-3.13-5.84Z"/>
      <path class="cls-1" d="M.41,34.18c-.55-3.04-.55-6,0-8.89C1.1,15.78,5.69,6.64,12.46,0l7.16,7.26c-26.5,32.02,13.75,71.59,45.16,44.04,1,1.41,7,6.22,7.18,7.25.32,1.82-7.21,6.52-8.89,7.44-27.28,14.92-58.41-1.83-62.66-31.81Z"/>
    </g>
  </g>
</svg>