<?xml version="1.0" encoding="UTF-8"?>
<svg id="Camada_2" data-name="Camada 2" xmlns="http://www.w3.org/2000/svg" viewBox="0 0 82.8 82.8">
  <defs>
    <style>
      .cls-1 {
        fill: #ffdb01;
      }
    </style>
  </defs>
  <g id="Camada_1-2" data-name="Camada 1">
    <rect class="cls-1" width="82.8" height="82.8" rx="12" ry="12"/>
    <path d="M64.52,38.31h-15.66l11.07-11.07c1.21-1.21,1.21-3.17,0-4.37-1.21-1.21-3.16-1.21-4.37,0l-11.07,11.07v-15.66c0-1.71-1.38-3.09-3.09-3.09s-3.09,1.38-3.09,3.09v15.66l-11.07-11.07c-1.21-1.21-3.17-1.21-4.37,0-1.21,1.21-1.21,3.17,0,4.37l11.07,11.07h-15.66c-1.71,0-3.09,1.38-3.09,3.09s1.38,3.09,3.09,3.09h15.66l-11.07,11.07c-1.21,1.21-1.21,3.17,0,4.37.6.6,1.39.91,2.19.91s1.58-.3,2.19-.91l11.07-11.07v15.66c0,1.71,1.38,3.09,3.09,3.09s3.09-1.38,3.09-3.09v-15.66l11.07,11.07c.6.6,1.39.91,2.19.91s1.58-.3,2.19-.91c1.21-1.21,1.21-3.17,0-4.37l-11.07-11.07h15.66c1.71,0,3.09-1.38,3.09-3.09s-1.38-3.09-3.09-3.09Z"/>
  </g>
</svg>